<?xml version="1.0" encoding="UTF-8" standalone="no" ?>
<!DOCTYPE svg PUBLIC "-//W3C//DTD SVG 1.1//EN" "http://www.w3.org/Graphics/SVG/1.1/DTD/svg11.dtd">
<svg xmlns="http://www.w3.org/2000/svg" xmlns:xlink="http://www.w3.org/1999/xlink" version="1.1" width="30" height="54" viewBox="0 0 30 54" xml:space="preserve">
<desc>Created with Fabric.js 4.6.0</desc>
<defs>
</defs>
<g transform="matrix(-1 0 0 0.98 15 27)" id="6JbZV31IfyClqF5gSHHZs"  >
<path style="stroke: none; stroke-width: 1; stroke-dasharray: none; stroke-linecap: butt; stroke-dashoffset: 0; stroke-linejoin: miter; stroke-miterlimit: 4; fill: rgb(255,255,255); fill-rule: nonzero; opacity: 1;" vector-effect="non-scaling-stroke"  transform=" translate(-14.01, -26.99)" d="M 27.1 54 C 26.900000000000002 54 26.700000000000003 53.9 26.5 53.8 L 0.3000000000000007 27.799999999999997 C 0.1 27.6 0 27.3 0 27.1 C 0 26.8 0.1 26.6 0.3 26.400000000000002 L 26.5 0.2 C 26.9 -0.09999999999999998 27.5 -0.09999999999999998 27.8 0.30000000000000004 C 28.1 0.7000000000000001 28.1 1.3 27.7 1.6 L 2.3 27 L 27.6 52.4 C 28 52.699999999999996 28.1 53.3 27.8 53.699999999999996 C 27.6 53.9 27.4 54 27.1 54 z" stroke-linecap="round" />
</g>
</svg>